<?xml version="1.0" encoding="utf-8"?>
<svg version="1.1" xmlns="http://www.w3.org/2000/svg" xmlns:xlink="http://www.w3.org/1999/xlink" x="0px" y="0px"
	 viewBox="0 0 84.9 54.9" style="enable-background:new 0 0 84.9 54.9;" xml:space="preserve">
<path d="M42.4,0L0,27.4l42.4,27.4l42.4-27.4L42.4,0z M8.6,27.4L42.4,5.6l33.8,21.9L42.4,49.3L8.6,27.4z M41.1,19.1l1.2-0.1l2,3.4
	h2.9l-2.6-4c1.3-0.5,2-1.5,2-2.9c0-1.9-1.4-3.2-4-3.2c0.1,0-4,0-4,0v10h2.5V19.1z M41,14.4c0,0,1,0,1.1,0c1.3,0,1.9,0.4,1.9,1.3
	c0,1-0.6,1.4-1.7,1.5l-1.3,0V14.4z M43.2,35.5c-1.2-0.3-2.1-0.6-2.1-1.2c0-0.5,0.4-0.8,1.3-0.8c1,0,2.2,0.4,3.2,0.9l0.5-2.1
	c-1-0.5-2.2-0.9-3.7-0.9c-2.5,0-3.8,1.2-3.8,3.1c0,2,1.8,2.7,3.2,3.1c1.3,0.4,2,0.6,2,1.3c0,0.6-0.6,0.9-1.5,0.9
	c-1.2,0-2.4-0.4-3.4-0.9l-0.5,2.1c0.9,0.5,2.4,0.9,3.9,0.9c2.6,0,4.1-1.3,4.1-3.2S44.7,35.9,43.2,35.5z M27.5,26.4v2h29.9v-2H27.5z"
	/>
</svg>
