<?xml version="1.0" encoding="utf-8"?>
<svg version="1.1" xmlns="http://www.w3.org/2000/svg" xmlns:xlink="http://www.w3.org/1999/xlink" x="0px" y="0px"
	 viewBox="-612.3 373.5 55 55" style="enable-background:new -612.3 373.5 55 55;" xml:space="preserve">
<path d="M-574.5,384c-4.6,0-8.8,1.9-11.9,4.9c-1.8-0.3-3.7-0.4-5.6-0.4c-6.3-0.1-12.9,1.5-13.1,4.4
	c-0.1,0.2-0.1,0.8,0,3.2c-3.7,0.7-6.6,2-6.7,3.9c-0.1,0.3-0.1,0.9,0,3.6c0,0.2,0,0.4,0,0.4c0,2,2.9,3.3,6.7,4c0,0.5,0,1.3,0.1,2.6
	c0,0.2,0,0.4,0,0.4c0,3,6.8,4.6,13.1,4.6c2.6,0,5.3-0.3,7.6-0.8c-0.1,0-0.1-0.1-0.2-0.1c2.8,2.1,6.3,3.4,10.1,3.4
	c9.4,0,17-7.6,17-17S-565.2,384-574.5,384z M-592,389.4c1.7,0,3.4,0.1,4.8,0.3l0.1-0.1c-1.8,2-3.1,4.4-3.8,7v-0.1
	c-0.4,0-0.7,0-1.1,0c-7.1,0-12.1-1.9-12.1-3.6C-604.1,391.3-599.2,389.4-592,389.4z M-592,397.6c0.3,0,0.6,0,0.9,0
	c-0.2,0.9-0.3,1.9-0.3,2.9c-0.2,0-0.4,0-0.5,0c-7.1,0-12.1-1.9-12.1-3.6c0-0.1,0-0.2,0-0.5c0-0.6,0-1.2,0-1.6
	C-602.1,396.6-597,397.6-592,397.6z M-605.1,397c0.2,2.9,6.8,4.4,13.1,4.4c0.2,0,0.4,0,0.5,0c0,0.5,0,0.9,0.1,1.4
	c-2,0.5-4.5,0.8-7.4,0.8c-7.1,0-12.1-1.9-12.1-3.6C-610.9,398.9-608.7,397.7-605.1,397z M-610.9,403.9c0-0.1,0-0.2,0-0.5
	c0-0.6,0-1.2,0-1.6c2.1,1.8,7.2,2.8,12.2,2.8c2.6,0,5.3-0.3,7.6-0.8l0,0c0.2,1,0.4,1.9,0.7,2.8c0,0,0,0,0-0.1c-2.1,0.6-4.9,1-8.2,1
	C-606,407.5-610.9,405.6-610.9,403.9z M-590.2,407.4c0.4,1.1,1,2.1,1.7,3.1c-1.1,0.1-2.3,0.2-3.4,0.2c-5.6,0-9.8-1.1-11.4-2.5
	c1.5,0.2,3.1,0.3,4.6,0.3C-595.8,408.5-592.7,408.1-590.2,407.4z M-592,414.6c-7.1,0-12.1-1.9-12.1-3.6c0-0.1,0-0.2,0-0.5
	c0-0.6,0-1.2,0-1.6c2.1,1.8,7.2,2.8,12.2,2.8c1.4,0,2.8-0.1,4.1-0.2c0.7,0.9,1.5,1.8,2.4,2.5C-587.3,414.3-589.6,414.6-592,414.6z
	 M-574.5,416c-8.3,0-15-6.7-15-15s6.7-15,15-15s15,6.7,15,15S-566.3,416-574.5,416z M-572.3,401c-0.4-0.3-0.9-0.6-1.3-0.8
	c-0.5-0.2-0.9-0.4-1.3-0.7c-0.4-0.2-0.7-0.5-1-0.8c-0.3-0.3-0.4-0.7-0.4-1.2c0-0.6,0.2-1,0.5-1.4c0.4-0.3,0.8-0.5,1.4-0.5
	c0.5,0,1,0.1,1.3,0.3c0.3,0.2,0.7,0.5,1.1,0.8l0.9-1c-0.4-0.4-0.8-0.7-1.2-1c-0.4-0.3-1-0.4-1.6-0.5v-2h-1.2v2
	c-0.9,0.1-1.6,0.5-2.1,1.1c-0.5,0.6-0.8,1.3-0.8,2.2c0,0.6,0.1,1.2,0.4,1.6c0.3,0.4,0.6,0.8,1,1.1c0.4,0.3,0.9,0.5,1.3,0.8
	c0.5,0.2,0.9,0.5,1.3,0.7c0.4,0.2,0.7,0.6,1,0.9c0.3,0.3,0.4,0.8,0.4,1.3c0,0.6-0.2,1.1-0.5,1.5c-0.4,0.4-0.9,0.6-1.6,0.6
	c-0.6,0-1.2-0.1-1.7-0.4c-0.5-0.3-1-0.6-1.4-0.9l-0.7,1.1c0.4,0.4,0.9,0.7,1.5,1c0.6,0.3,1.2,0.5,1.8,0.5v2h1.2v-2
	c0.9-0.1,1.7-0.5,2.2-1.1c0.5-0.6,0.8-1.4,0.8-2.3c0-0.7-0.1-1.3-0.4-1.7C-571.7,401.8-571.8,401.3-572.3,401z"/>
</svg>
