<?xml version="1.0" encoding="utf-8"?>
<svg version="1.1" xmlns="http://www.w3.org/2000/svg" xmlns:xlink="http://www.w3.org/1999/xlink" x="0px" y="0px"
	 viewBox="-7 377 16 16" style="enable-background:new -7 377 16 16;" xml:space="preserve">
<path d="M-7,393l0-0.9c0,0,0-0.7,0.1-1.4c0.2-1.1,0.5-1.9,0.9-2.4c0.5-0.5,1.4-0.8,2.2-1c0.4-0.1,0.8-0.2,1.1-0.3
	c0.3-0.1,0.4-0.2,0.5-0.3l0,0l0-0.1c0.1-0.3,0-0.6-0.5-1.3c-0.2-0.3-0.5-0.7-0.7-1.2c-0.6-1.4-0.7-2.9-0.3-4.3
	c0.3-0.9,0.9-1.6,1.7-2.1C-1,377.3-0.1,377,1,377s2,0.2,2.8,0.7c0.8,0.5,1.4,1.2,1.7,2.1c0.4,1.4,0.3,2.9-0.3,4.3
	c-0.2,0.5-0.4,0.8-0.7,1.2c-0.4,0.7-0.6,1-0.5,1.3l0,0.1l0,0c0.1,0.1,0.2,0.2,0.5,0.3c0.3,0.1,0.7,0.2,1.1,0.3
	c0.8,0.2,1.7,0.5,2.2,1c0.5,0.5,0.8,1.2,0.9,2.4c0.1,0.8,0.1,1.4,0.1,1.4l0,0.9H-7z M-4.7,389.5c-0.1,0.1-0.3,0.5-0.4,1.4l0,0.2
	l0.3-0.1H7.2l0-0.2c-0.2-1.1-0.4-1.3-0.4-1.3l0,0l0,0c-0.2-0.2-0.7-0.3-1.5-0.5c-1.1-0.3-2.4-0.6-2.8-1.7c-0.5-1.2,0.1-2.2,0.6-2.9
	c0.2-0.3,0.4-0.6,0.5-0.9c0.4-1.1,0.5-2.1,0.2-3.1c-0.4-1.4-1.9-1.6-2.8-1.6s-2.3,0.2-2.8,1.6c-0.3,1-0.2,2,0.2,3.1
	c0.1,0.3,0.3,0.6,0.5,0.9c0.5,0.8,1.1,1.7,0.6,2.9c-0.4,1-1.7,1.4-2.8,1.7C-4,389.2-4.5,389.3-4.7,389.5L-4.7,389.5L-4.7,389.5z"/>
</svg>
