<svg xmlns="http://www.w3.org/2000/svg" viewBox="0 0 30 30"><path d="M3,9V26H15V14ZM8,24H5V21H8v3Zm0-5H5V16H8v3Zm5,5H10V21h3v3Zm0-5H10V16h3v3Z"/><path d="M28,12V10H26.25a4.44,4.44,0,0,0-.5-1.34l1.2-1.2L25.54,6.05,24.42,7.16A4.47,4.47,0,0,0,23,6.51V5H21V6.42A4.46,4.46,0,0,0,19.45,7l-1-1L17.05,7.46l1,1A4.46,4.46,0,0,0,17.42,10H16v2h1.51a4.47,4.47,0,0,0,.66,1.42l-1.11,1.11,1.41,1.41,1.2-1.2a4.44,4.44,0,0,0,1.34.5V17h2V15.16a4.47,4.47,0,0,0,1.22-.53l1.32,1.32,1.41-1.41-1.32-1.32A4.47,4.47,0,0,0,26.16,12H28Zm-6.17,1.33a2.5,2.5,0,1,1,2.5-2.5A2.5,2.5,0,0,1,21.83,13.33Z"/></svg>
