<?xml version="1.0" encoding="utf-8"?>
<svg version="1.1" xmlns="http://www.w3.org/2000/svg" xmlns:xlink="http://www.w3.org/1999/xlink" x="0px" y="0px"
	 viewBox="0 0 213.3 54.9" style="enable-background:new 0 0 213.3 54.9;" xml:space="preserve">
<path class="st0" d="M199.7,23.5c1,0,2,0.3,2.8,0.8l0.9-2.4c-1-0.5-2.4-0.8-3.7-0.8c-3.7,0-6.1,2.3-6.1,5.9c0,3.8,2.4,5.9,6,5.9
	c1.3,0,2.8-0.3,3.7-0.8l-0.6-2.5c-0.8,0.6-1.9,0.9-3,0.9c-2,0-3.2-1.4-3.2-3.5C196.5,24.8,197.7,23.5,199.7,23.5z M108.9,24.9
	c0-2.2-1.6-3.6-4.6-3.6c0.1,0-4.5,0-4.5,0v11.3h2.9v-3.7l1.3-0.1l2.3,3.8h3.2l-2.9-4.4C108.1,27.6,108.9,26.4,108.9,24.9z
	 M104.1,26.8l-1.4,0v-3.2c0,0,1.2,0,1.2,0c1.4,0,2.1,0.5,2.1,1.5C106,26.2,105.3,26.7,104.1,26.8z M185.7,21.3l-4,11.3h2.8l0.8-2.4
	h4.2l0.8,2.4h2.8l-3.9-11.3H185.7z M186,28l1.5-4.4l1.4,4.4H186z M177,21.3c0,0-4.2,0-4.2,0v11.3h2.9v-3.3l1.1,0c3.2,0,5-1.4,5-4.1
	C181.8,22.9,180.2,21.3,177,21.3z M176.8,27.1l-1.2,0v-3.5c0,0,0.9,0,1.2,0c1.4,0,2.2,0.6,2.2,1.7C179,26.5,178.3,27.1,176.8,27.1z
	 M213.3,23.6v-2.3h-8.2v11.3h8.2v-2.3h-5.4v-2.2h4.4v-2.3h-4.4v-2.2H213.3z M111,32.6h8.2v-2.3h-5.4v-2.2h4.4v-2.3h-4.4v-2.2h5.4
	v-2.3H111V32.6z M167.4,25.8c-1.4-0.4-2.4-0.7-2.4-1.4c0-0.6,0.5-1,1.5-1c1.1,0,2.5,0.4,3.6,1l0.6-2.4c-1.1-0.6-2.4-1-4.2-1
	c-2.8,0-4.3,1.4-4.3,3.5c0,2.3,2,3,3.6,3.5c1.5,0.4,2.3,0.7,2.3,1.4c0,0.7-0.7,1.1-1.7,1.1c-1.4,0-2.7-0.4-3.9-1l-0.5,2.4
	c1,0.6,2.7,1,4.3,1c3,0,4.6-1.5,4.6-3.7C170.9,27.1,169.1,26.3,167.4,25.8z M156.3,25.8l-2.3-4.4h-3l3.9,7v4.3h2.8v-4.3l3.9-7h-3
	L156.3,25.8z M124.3,21.3l-4,11.3h2.8l0.8-2.4h4.2l0.8,2.4h2.8l-3.9-11.3H124.3z M124.5,28l1.5-4.4l1.4,4.4H124.5z M140,23.7h3.6
	v8.9h2.9v-8.9h3.6v-2.4h-10V23.7z M135.9,21.3H133v11.3h7.6v-2.4h-4.7V21.3z M0,27.4l42.4,27.4l42.4-27.4L42.4,0L0,27.4z M42.4,49.3
	L8.6,27.4L42.4,5.6l33.8,21.9L42.4,49.3z M43.2,35.5c-1.2-0.3-2.1-0.6-2.1-1.2c0-0.5,0.4-0.8,1.3-0.8c1,0,2.2,0.4,3.2,0.9l0.5-2.1
	c-1-0.5-2.2-0.9-3.7-0.9c-2.5,0-3.8,1.2-3.8,3.1c0,2,1.8,2.7,3.2,3.1c1.3,0.4,2,0.6,2,1.3c0,0.6-0.6,0.9-1.5,0.9
	c-1.2,0-2.4-0.4-3.4-0.9l-0.5,2.1c0.9,0.5,2.4,0.9,3.9,0.9c2.6,0,4.1-1.3,4.1-3.2S44.7,35.9,43.2,35.5z M38.5,22.3h2.5v-3.3l1.2-0.1
	l2,3.4h2.9l-2.6-4c1.3-0.5,2-1.5,2-2.9c0-1.9-1.4-3.2-4-3.2c0.1,0-4,0-4,0V22.3z M41,14.4c0,0,1,0,1.1,0c1.3,0,1.9,0.4,1.9,1.3
	c0,1-0.6,1.4-1.7,1.5l-1.3,0V14.4z M27.5,28.4h29.9v-2H27.5V28.4z"/>
</svg>
