<?xml version="1.0" encoding="utf-8"?>
<svg version="1.1" xmlns="http://www.w3.org/2000/svg" xmlns:xlink="http://www.w3.org/1999/xlink" x="0px" y="0px"
	 viewBox="0 0 14 14" style="enable-background:new 0 0 14 14;" xml:space="preserve">
<path d="M12.5,7c0-3-2.5-5.5-5.5-5.5c-2.8,0-5.1,2.1-5.4,4.7l0,1c0.1,2.9,2.4,5.2,5.3,5.3c0.3,0,0.4,0,0.6,0
	C10.3,12.3,12.5,9.9,12.5,7z M7.1,2.7C7.7,3.1,8.6,4,8.8,6H5.4C5.7,4,6.6,3.1,7.1,2.7z M8.9,7c0,3-1.1,3.9-1.7,4.4c0,0,0-0.1,0-0.1
	C6.5,10.8,5.4,10,5.4,7H8.9z M8.8,10.9C9.4,10,9.9,9,9.9,7h1.6C11.4,9,10.3,10.2,8.8,10.9z M11.4,6H9.8C9.6,5,9,3.2,8.4,2.5
	C9.9,3,11.1,5,11.4,6z M6,2.4C5.3,3.1,4.6,4,4.4,6H2.6C2.9,4,4.2,2.8,6,2.4z M2.5,7h1.9c0,2,0.5,3.1,1.1,4C3.8,10.4,2.6,9,2.5,7z"/>
</svg>
