<?xml version="1.0" encoding="utf-8"?>
<svg version="1.1" xmlns="http://www.w3.org/2000/svg" xmlns:xlink="http://www.w3.org/1999/xlink" x="0px" y="0px" viewBox="0 0 30 30" enable-background="new 0 0 30 30" xml:space="preserve">
<path d="M18.2,1.2c-3.4,0-6.2,2.8-6.2,6.2s2.8,6.2,6.2,6.2s6.2-2.8,6.2-6.2S21.6,1.2,18.2,1.2z M18.2,12.5
	c-2.8,0-5.2-2.3-5.2-5.2c0-2.8,2.3-5.2,5.2-5.2c2.8,0,5.2,2.3,5.2,5.2C23.3,10.2,21,12.5,18.2,12.5z M5.7,28.8h12v-12l-12-5V28.8z
	 M12.7,18.8h3v3h-3V18.8z M12.7,23.8h3v3h-3V23.8z M7.7,18.8h3v3h-3V18.8z M7.7,23.8h3v3h-3V23.8z M18.7,4.8h-1v2h-2v1h2v2h1v-2h2
	v-1h-2V4.8z"/>
</svg>
