<?xml version="1.0" encoding="utf-8"?>
<svg version="1.1" xmlns="http://www.w3.org/2000/svg" xmlns:xlink="http://www.w3.org/1999/xlink" x="0px" y="0px"
	 viewBox="0 0 40 40" style="enable-background:new 0 0 40 40;" xml:space="preserve">
<path d="M32.7,24l-0.1,0.8c0,0-0.3,1.7-3.2,1.7c-2.8,0-3.2-1.5-3.2-1.7L25.9,24H23v-5h-5.5l-0.8,0l-0.2,0.7
	c0,0.1-0.8,2.7-4.4,2.7s-4.3-2.6-4.3-2.7L7.7,19H2v20h36V24H32.7z M21,37H4V21h2.2c0.7,1,2.5,3.4,6,3.4s5.3-2.4,6-3.4H21V37z M36,37
	H23V26h1.4c0.6,1,2,2.5,4.9,2.5c2.9,0,4.3-1.5,4.9-2.5H36V37z M29.3,22.2c3.3,0,6-2.7,6-6s-2.7-6-6-6s-6,2.7-6,6S26,22.2,29.3,22.2z
	 M29.3,12.2c2.2,0,4,1.8,4,4s-1.8,4-4,4s-4-1.8-4-4S27.1,12.2,29.3,12.2z M12.2,17c4.4,0,8-3.6,8-8s-3.6-8-8-8s-8,3.6-8,8
	S7.8,17,12.2,17z M12.2,3c3.3,0,6,2.7,6,6s-2.7,6-6,6s-6-2.7-6-6S8.9,3,12.2,3z"/>
</svg>
