<?xml version="1.0" encoding="utf-8"?>
<!DOCTYPE svg PUBLIC "-//W3C//DTD SVG 1.1//EN" "http://www.w3.org/Graphics/SVG/1.1/DTD/svg11.dtd">
<svg viewBox="0 0 28 35" version="1.1" xmlns="http://www.w3.org/2000/svg" xmlns:xlink="http://www.w3.org/1999/xlink" xml:space="preserve">
 <path d="M7,25h14v-2H7V25z M7,20h14v-2H7V20z M7,15h14v-2H7V15z M28,9.2V8.3L19.9,0H2.5C1.1,0,0,1.2,0,2.6v29.8
                C0,33.8,1.1,35,2.5,35h22.9c1.4,0,2.5-1.2,2.5-2.6V9.2L28,9.2L28,9.2z M26,32.4c0,0.3-0.2,0.6-0.5,0.6H2.5C2.2,33,2,32.7,2,32.4V2.6
                C2,2.3,2.2,2,2.5,2H19v7.2h7V32.4z"></path>
</svg>
