<?xml version="1.0" encoding="utf-8"?>
<!-- Generator: Adobe Illustrator 19.2.0, SVG Export Plug-In . SVG Version: 6.00 Build 0)  -->
<svg version="1.1"  xmlns="http://www.w3.org/2000/svg" xmlns:xlink="http://www.w3.org/1999/xlink" x="0px" y="0px"
	  viewBox="0 0 22 22" enable-background="new 0 0 22 22" xml:space="preserve">
<path d="M13,8H6v1h7V8z M13,10H6v1h7V10z M6,13h4v-1H6V13z M16.8,8.2L15,9.9V4H4v14h11v-3.8l3.9-3.9L16.8,8.2z M14,17H5V5h9v5.9
	l-2.2,2.3l-1,3.1l3.1-1l0.1-0.2V17z M13.4,14.5l-1,0.3l0.3-1l4.2-4.2l0.7,0.7L13.4,14.5z"/>
</svg>
