<?xml version="1.0" encoding="utf-8"?>
<svg version="1.1" id="Layer_1" xmlns="http://www.w3.org/2000/svg" xmlns:xlink="http://www.w3.org/1999/xlink" x="0px" y="0px"
	 viewBox="-632.3 373.3 55 55" style="enable-background:new -632.3 373.3 55 55;" xml:space="preserve">
<path d="M-602,402.9c-1.5,1.7-3.7,2.7-6,2.7c-0.6,0-1,0.4-1,1c0,0.6,0.4,1,1,1c2.9,0,5.6-1.2,7.5-3.4
	c0.4-0.4,0.3-1-0.1-1.4C-601,402.5-601.7,402.5-602,402.9z M-587.9,416.3l-9.6-9.6c2.1-2.5,3.4-5.7,3.4-9.2c0-7.7-6.3-14-14-14
	s-13.9,6.4-13.9,14.1c0,7.7,6.3,14,14,14c3.5,0,6.7-1.3,9.2-3.4l9.6,9.6c0.2,0.2,0.5,0.3,0.7,0.3s0.5-0.1,0.7-0.3
	C-587.5,417.4-587.5,416.7-587.9,416.3z M-608,409.6c-6.6,0-12-5.4-12-12c0-6.6,5.4-12,12-12c6.6,0,12,5.4,12,12
	C-596,404.2-601.4,409.6-608,409.6z"/>
</svg>
