<?xml version="1.0" encoding="utf-8"?>
<!-- Generator: Adobe Illustrator 19.2.0, SVG Export Plug-In . SVG Version: 6.00 Build 0)  -->
<svg version="1.1" id="Layer_1" xmlns="http://www.w3.org/2000/svg" xmlns:xlink="http://www.w3.org/1999/xlink" x="0px" y="0px"
	 width="22px" height="22px" viewBox="0 0 22 22" enable-background="new 0 0 22 22" xml:space="preserve">
<path d="M15.7,9.2l0.5-0.5L12,8.1l-1.9-3.8L8.3,8.1L4.1,8.7l3,3l-0.7,4.2l3.8-2l1.7,0.9c0.6,0.8,1.6,1.3,2.7,1.3
	c1.9,0,3.5-1.6,3.5-3.5C18,11,17,9.7,15.7,9.2z M11,12.5c0,0.2,0,0.5,0.1,0.7l-0.9-0.5L7.7,14l0.5-2.7l-2-1.9L8.9,9l1.2-2.5L11.3,9
	l1.8,0.3C11.9,9.8,11,11,11,12.5z M14.5,15c-1.4,0-2.5-1.1-2.5-2.5s1.1-2.5,2.5-2.5s2.5,1.1,2.5,2.5S15.8,15,14.5,15z M15,11h-1v1
	h-1v1h1v1h1v-1h1v-1h-1V11z"/>
</svg>
