<?xml version="1.0" encoding="utf-8"?><svg xmlns="http://www.w3.org/2000/svg" xmlns:xlink="http://www.w3.org/1999/xlink"><symbol viewBox="0 0 18 18" id="icon-captions-off"><path d="M1 2a1 1 0 0 0-1 1v12a1 1 0 0 0 1 1h16a1 1 0 0 0 1-1V3a1 1 0 0 0-1-1H1zm1 12V4h14v10H2z"/></symbol><symbol viewBox="0 0 18 18" id="icon-captions-on"><path d="M1 2a1 1 0 0 0-1 1v12a1 1 0 0 0 1 1h16a1 1 0 0 0 1-1V3a1 1 0 0 0-1-1H1zm1 12V4h14v10H2z"/><path d="M3 11h3v2H3zm9 0h3v2h-3zm-5 0h4v2H7z"/></symbol><symbol viewBox="0 0 18 18" id="icon-enter-fullscreen"><path d="M6.425 10.165l-2.57 2.569.018-1.846c-.003-.552-.45-1-1.002-1.002a.985.985 0 0 0-.992.992l-.023 4.22a1 1 0 0 0 .295.707l.025.023c.008.007.015.017.023.025.188.188.443.294.707.295l4.22-.023a.986.986 0 0 0 .992-.992c-.003-.55-.45-1-1.002-1.002l-1.847.016 2.57-2.569a.99.99 0 0 0 0-1.4l-.013-.013a.99.99 0 0 0-1.4 0h-.001zm7.729-4.899l-.017 1.846c.003.552.45 1 1.002 1.002a.985.985 0 0 0 .992-.992l.024-4.22a1.007 1.007 0 0 0-.296-.707l-.025-.023c-.008-.007-.015-.017-.023-.025a1.009 1.009 0 0 0-.707-.295l-4.22.023a.986.986 0 0 0-.991.992c.002.55.45 1 1.002 1.002l1.846-.016-2.569 2.569a.99.99 0 0 0 0 1.4c.4.4 1.026.4 1.413.013l2.57-2.569z"/></symbol><symbol viewBox="0 0 18 18" id="icon-exit-fullscreen"><path d="M14.425 2.165l-2.57 2.569.018-1.846c-.003-.552-.45-1-1.002-1.002a.985.985 0 0 0-.992.992l-.023 4.22a1.007 1.007 0 0 0 .32.73c.008.007.015.017.023.025.188.188.443.294.707.295l4.22-.023a.986.986 0 0 0 .992-.992c-.003-.55-.45-1-1.002-1.002l-1.847.016 2.57-2.569a.99.99 0 0 0 0-1.4l-.013-.013a.99.99 0 0 0-1.4 0h-.001zM6.154 13.266l-.017 1.846c.003.552.45 1 1.002 1.002a.985.985 0 0 0 .992-.992l.024-4.22a1.007 1.007 0 0 0-.32-.73c-.009-.007-.016-.017-.024-.025a1.009 1.009 0 0 0-.707-.295l-4.22.023a.986.986 0 0 0-.991.992c.002.55.45 1 1.002 1.002l1.846-.016-2.569 2.569a.99.99 0 0 0 0 1.4c.4.4 1.026.4 1.413.013l2.57-2.569z"/></symbol><symbol viewBox="0 0 18 18" id="icon-fast-forward"><path d="M17.569 8.246L7 2a1 1 0 0 0-1 1v1.954L1 2a1 1 0 0 0-1 1v12a1 1 0 0 0 1 1l5-2.955V15a1 1 0 0 0 1 1l10.569-6.246a.876.876 0 0 0 0-1.508zM6 10.722l-4 2.364V4.914l4 2.364v3.444zm2 2.364V4.914L14.915 9 8 13.086z"/></symbol><symbol viewBox="0 0 18 18" id="icon-muted"><path d="M9.214 2a.62.62 0 0 0-.334.101l-4.048 2.81A.494.494 0 0 1 4.549 5H.996A.998.998 0 0 0 0 6v6c0 .552.446 1 .996 1h3.553c.102 0 .2.031.283.089l4.048 2.81a.62.62 0 0 0 .334.101c.392 0 .747-.4.747-.949V2.95c0-.55-.355-.949-.747-.949V2zM7.969 12.834l-2.387-1.657a.996.996 0 0 0-.566-.178H2.491a.5.5 0 0 1-.498-.5v-3a.5.5 0 0 1 .498-.5h2.525c.202 0 .4-.062.566-.178l2.387-1.657v7.67zm6.965-4.035c-.086-1.748-1.514-2.991-2.507-3.649-.47-.312-1.094-.122-1.325.408l-.038.086a.973.973 0 0 0 .336 1.194c.706.473 1.586 1.247 1.624 2.065.032.676-.553 1.468-1.663 2.27a.987.987 0 0 0-.285 1.275l.042.075c.266.475.866.624 1.3.312 1.74-1.251 2.586-2.606 2.516-4.037v.001z"/><path d="M13.957 9.2c.086 1.747 1.514 2.99 2.507 3.648.47.312 1.094.122 1.325-.408l.038-.086a.973.973 0 0 0-.336-1.194c-.706-.473-1.586-1.247-1.624-2.065-.032-.676.553-1.468 1.663-2.27a.987.987 0 0 0 .285-1.275l-.042-.075c-.266-.475-.866-.624-1.3-.312-1.74 1.251-2.586 2.606-2.516 4.037z"/></symbol><symbol viewBox="0 0 18 18" id="icon-pause"><path d="M2 4v10c0 2 2 2 2 2h2s2 0 2-2V4c0-2-2-2-2-2H4S2 2 2 4zm2 0h2v10H4V4zm6 0v10c0 2 2 2 2 2h2s2 0 2-2V4c0-2-2-2-2-2h-2s-2 0-2 2zm2 0h2v10h-2V4z"/></symbol><symbol viewBox="0 0 18 18" id="icon-play"><path d="M5 4.914L11.915 9 5 13.086V4.914zM4 2a1 1 0 0 0-1 1v12a1 1 0 0 0 1 1l10.569-6.246a.876.876 0 0 0 0-1.508L4 2z"/></symbol><symbol viewBox="0 0 18 18" id="icon-restart"><path d="M1 2a1 1 0 0 1 1 1v4.318L11 2a1 1 0 0 1 1 1v1.954L17 2a1 1 0 0 1 1 1v12a1 1 0 0 1-1 1l-5-2.955V15a1 1 0 0 1-1 1l-9-5.318V15a1 1 0 0 1-2 0V3a1 1 0 0 1 1-1zm11 8.722l4 2.364V4.914l-4 2.364v3.444zm-2 2.364V4.914L3.085 9 10 13.086z"/></symbol><symbol viewBox="0 0 18 21" id="icon-rewind"><path d="M.431 10.754L11 17a1 1 0 0 0 1-1v-1.954L17 17a1 1 0 0 0 1-1V4a1 1 0 0 0-1-1l-5 2.955V4a1 1 0 0 0-1-1L.431 9.246a.876.876 0 0 0 0 1.508zM12 8.278l4-2.364v8.172l-4-2.364V8.278zm-2-2.364v8.172L3.085 10 10 5.914z"/></symbol><symbol viewBox="0 0 18 18" id="icon-volume"><path d="M10.214 2a.62.62 0 0 0-.334.101l-4.048 2.81A.494.494 0 0 1 5.549 5H1.996A.998.998 0 0 0 1 6v6c0 .552.446 1 .996 1h3.553c.102 0 .2.031.283.089l4.048 2.81a.62.62 0 0 0 .334.101c.392 0 .747-.4.747-.949V2.95c0-.55-.355-.949-.747-.949zM8.969 12.834l-2.387-1.657a.996.996 0 0 0-.566-.178H3.491a.5.5 0 0 1-.498-.5v-3a.5.5 0 0 1 .498-.5h2.525c.202 0 .4-.062.566-.178l2.387-1.657v7.669zm7.965-4.035c-.086-1.748-1.514-2.991-2.507-3.649-.47-.312-1.094-.122-1.325.408l-.038.086a.973.973 0 0 0 .336 1.194c.706.473 1.586 1.247 1.624 2.065.032.676-.553 1.468-1.663 2.27a.987.987 0 0 0-.285 1.275l.042.075c.266.475.866.624 1.3.312 1.74-1.251 2.586-2.606 2.516-4.037z"/></symbol></svg>