<?xml version="1.0" encoding="utf-8"?>
<!DOCTYPE svg PUBLIC "-//W3C//DTD SVG 1.1//EN" "http://www.w3.org/Graphics/SVG/1.1/DTD/svg11.dtd">
<svg viewBox="0 0 50 50" version="1.1" xmlns="http://www.w3.org/2000/svg" xmlns:xlink="http://www.w3.org/1999/xlink" xml:space="preserve">
    <path d="M25,32.3c-2.4,0-4.3,1.9-4.3,4.3c0,2.4,1.9,4.3,4.3,4.3c2.4,0,4.3-1.9,4.3-4.3
                C29.3,34.2,27.4,32.3,25,32.3z M46.6,11.2l-7.8-7.8C36.8,1.5,33.3,0,30.5,0H19.4c-2.7,0-6.3,1.5-8.2,3.4l-7.8,7.8
                C1.4,13.2,0,16.7,0,19.4v11.1c0,2.7,1.5,6.3,3.4,8.2l7.8,7.8c1.9,1.9,5.5,3.4,8.2,3.4h11.1c2.7,0,6.3-1.5,8.2-3.4l7.8-7.8
                c1.9-1.9,3.4-5.5,3.4-8.2V19.4C50,16.7,48.5,13.2,46.6,11.2z M46,30.5c0,1.7-1.1,4.2-2.2,5.4l-7.8,7.8c-1.2,1.2-3.7,2.2-5.4,2.2
                H19.4c-1.7,0-4.2-1.1-5.4-2.2l-7.8-7.8C5,34.8,4,32.2,4,30.5V19.4c0-1.7,1.1-4.2,2.2-5.4L14,6.2C15.2,5,17.8,4,19.4,4h11.1
                c1.7,0,4.2,1.1,5.4,2.2l7.8,7.8c1.2,1.2,2.2,3.7,2.2,5.4V30.5z M22.3,29.6h5.3l2-18.9h-9.3L22.3,29.6z"></path>
</svg>
