<?xml version="1.0" encoding="utf-8"?>
<svg version="1.1" xmlns="http://www.w3.org/2000/svg" xmlns:xlink="http://www.w3.org/1999/xlink" x="0px" y="0px"
	 viewBox="0 0 40 40" style="enable-background:new 0 0 40 40;" xml:space="preserve">
<path d="M21,9h-2v4h2V9z M25,9h-2v4h2V9z M21,15h-2v4h2V15z M25,15h-2v4h2V15z M21,21h-2v4h2V21z M25,21h-2v4h2V21z
	 M21,27h-2v4h2V27z M30,16V4H14v15.2L0,22.8V36h40V16H30z M14,34H2v-9.6l12-3.1V34z M28,34H16V6h12V34z M38,34h-8V18h8V34z M35,21
	h-2v4h2V21z M35,27h-2v4h2V27z M25,27h-2v4h2V27z M7,27H5v4h2V27z M11,27H9v4h2V27z"/>
</svg>
