<?xml version="1.0" encoding="utf-8"?>
<svg version="1.1" xmlns="http://www.w3.org/2000/svg" xmlns:xlink="http://www.w3.org/1999/xlink" x="0px" y="0px"
	 viewBox="0 0 14 14" style="enable-background:new 0 0 14 14;" xml:space="preserve">
<path d="M12.3,5.5c0.1-0.3,0.2-0.6,0.2-1c0-2-2.4-3.5-5.5-3.5S1.5,2.6,1.5,4.5c0,0.4,0.1,0.7,0.2,1c-0.1,0.3-0.2,0.7-0.2,1
	c0,0.4,0.1,0.7,0.2,1c-0.1,0.3-0.2,0.7-0.2,1c0,2,2.4,3.5,5.5,3.5s5.5-1.5,5.5-3.5c0-0.3-0.1-0.7-0.2-1c0.1-0.3,0.2-0.6,0.2-1
	C12.5,6.2,12.4,5.9,12.3,5.5z M7,8c1.9,0,3.5-0.6,4.5-1.5C11.5,7.9,9.4,9,7,9S2.5,7.9,2.5,6.6C3.5,7.5,5.1,8,7,8z M7,2
	c2.4,0,4.5,1.1,4.5,2.5S9.4,7,7,7S2.5,5.9,2.5,4.5S4.6,2,7,2z M7,11c-2.4,0-4.5-1.1-4.5-2.5C3.5,9.5,5.1,10,7,10s3.5-0.6,4.5-1.5
	C11.5,9.9,9.4,11,7,11z"/>
</svg>
