<?xml version="1.0" encoding="utf-8"?>
<svg version="1.1" xmlns="http://www.w3.org/2000/svg" xmlns:xlink="http://www.w3.org/1999/xlink" x="0px" y="0px"
	 viewBox="0 0 40 40" style="enable-background:new 0 0 40 40;" xml:space="preserve">
<path d="M22.2,24.9c-0.4-0.3-0.9-0.6-1.3-0.8c-0.5-0.2-0.9-0.4-1.3-0.7c-0.4-0.2-0.7-0.5-1-0.8
	c-0.3-0.3-0.4-0.7-0.4-1.2c0-0.6,0.2-1,0.5-1.4c0.4-0.3,0.8-0.5,1.4-0.5c0.5,0,1,0.1,1.3,0.3s0.7,0.5,1.1,0.8l0.9-1
	c-0.4-0.4-0.5-0.7-1-1c-0.4-0.3-1.4-0.4-1.4-0.5V16h-2v2.2c0,0.1-1.4,0.5-1.9,1.1c-0.5,0.6-0.7,1.3-0.7,2.2c0,0.6,0.2,1.2,0.5,1.6
	c0.3,0.4,0.6,0.8,1,1.1c0.4,0.3,0.9,0.5,1.3,0.8c0.5,0.2,0.9,0.5,1.3,0.7s0.7,0.6,1,0.9c0.3,0.3,0.4,0.8,0.4,1.3
	c0,0.6-0.2,1.1-0.5,1.5c-0.4,0.4-0.9,0.6-1.6,0.6c-0.6,0-1.2-0.1-1.7-0.4c-0.5-0.3-1-0.6-1.4-0.9L16,29.7c0.4,0.4,0.7,0.7,1.3,1
	s1.6,0.5,1.6,0.5V33h2v-1.8c1-0.1,1.5-0.5,2-1.1c0.5-0.6,0.7-1.4,0.7-2.3c0-0.7-0.2-1.3-0.5-1.7C23,25.5,22.6,25.2,22.2,24.9z
	 M30.8,16.4l-9.7-6.8L28.4,1H11.6l7.3,8.6l-9.7,6.8L4.9,30.6L8.7,39h22.6l3.8-8.4L30.8,16.4z M15.9,3h8.2L20,7.8L15.9,3z M30,37H10
	l-2.9-6.5l3.9-12.9l9.1-6.4l9.1,6.4l3.9,12.9L30,37z"/>
</svg>
