<?xml version="1.0" encoding="utf-8"?>
<!-- Generator: Adobe Illustrator 19.2.0, SVG Export Plug-In . SVG Version: 6.00 Build 0)  -->
<svg version="1.1" id="Layer_1" xmlns="http://www.w3.org/2000/svg" xmlns:xlink="http://www.w3.org/1999/xlink" x="0px" y="0px"
	 width="22px" height="22px" viewBox="0 0 22 22" enable-background="new 0 0 22 22" xml:space="preserve">
<path d="M17.5,5C15.5,5,14,6.6,14,8.5s1.6,3.5,3.5,3.5S21,10.4,21,8.5S19.4,5,17.5,5z M17.5,11C16.1,11,15,9.9,15,8.5S16.1,6,17.5,6
	S20,7.1,20,8.5S18.8,11,17.5,11z M18,7h-1v1h-1v1h1v1h1V9h1V8h-1V7z M0.7,13.6l0.5,0.8L4,12.7V18h10v-5.3l2.7,1.7l0.5-0.8L9,8.4
	L0.7,13.6z M13,12.1V17H5v-4.9l4-2.5L13,12.1z"/>
</svg>
