<?xml version="1.0" encoding="utf-8"?>
<!-- Generator: Adobe Illustrator 19.2.0, SVG Export Plug-In . SVG Version: 6.00 Build 0)  -->
<svg version="1.1" id="Layer_1" xmlns="http://www.w3.org/2000/svg" xmlns:xlink="http://www.w3.org/1999/xlink" x="0px" y="0px"
	  viewBox="0 0 22 22" enable-background="new 0 0 22 22" xml:space="preserve">
<path d="M17.5,3C15.5,3,14,4.6,14,6.5s1.6,3.5,3.5,3.5S21,8.4,21,6.5S19.4,3,17.5,3z M17.5,9C16.1,9,15,7.9,15,6.5S16.1,4,17.5,4
	S20,5.1,20,6.5S18.8,9,17.5,9z M16,7h3V6h-3V7z M0.7,11.6l0.5,0.8L4,10.7V16h10v-5.3l2.7,1.7l0.5-0.8L9,6.4L0.7,11.6z M13,10.1V15H5
	v-4.9l4-2.5L13,10.1z"/>
</svg>
