<?xml version="1.0" encoding="utf-8"?>
<!DOCTYPE svg PUBLIC "-//W3C//DTD SVG 1.1//EN" "http://www.w3.org/Graphics/SVG/1.1/DTD/svg11.dtd">
<svg viewBox="0 0 40 40" version="1.1" xmlns="http://www.w3.org/2000/svg" xmlns:xlink="http://www.w3.org/1999/xlink" xml:space="preserve">
  <path d="M27.3,22.9L25,25.1c0.3-3.1-0.6-6.2-2.6-8.7c-2.4-3.1-6-5-9.8-5c-0.6,0-1,0.4-1,1s0.4,1,1,1
                c3.1,0,6.2,1.6,8.2,4.2c1.7,2.2,2.4,4.9,2.1,7.5l-2.3-2.3c-0.4-0.4-1-0.4-1.4,0c-0.4,0.4-0.4,1,0,1.4l4,3.9c0.2,0.2,0.4,0.3,0.7,0.3
                s0.5-0.1,0.7-0.3l4-3.9c0.4-0.4,0.4-1,0-1.4C28.3,22.5,27.7,22.5,27.3,22.9z M40,20C40,9,31,0,20,0C8.9,0,0,9,0,20
                c0,11,8.9,20,20,20c4,0,7.7-1.2,10.8-3.1c3.7,1,8.2,2.1,8.2,2.1s-1-4-2.1-8.3C38.8,27.6,40,24,40,20z M31.3,34.9
                c-0.2,0-0.4-0.1-0.5-0.1c-0.4,0-0.8,0.1-1.1,0.3C26.8,37,23.4,38,20,38c-9.9,0-18-8.1-18-18c0-9.9,8.1-18,18-18s18,8.1,18,18
                c0,3.4-1,6.8-2.8,9.7c-0.3,0.5-0.4,1.1-0.2,1.6c0.5,1.8,0.9,3.5,1.3,5C34.7,35.9,32.9,35.4,31.3,34.9z"></path>
</svg>
