<svg xmlns="http://www.w3.org/2000/svg" viewBox="0 0 30 30"><polygon points="23.97 17.69 18.25 14.69 19.18 12.92 21.31 14.03 20.82 11.15 22.91 9.1 20.02 8.68 18.72 6.05 17.42 8.68 14.52 9.1 16.25 10.78 14.85 12.21 10.23 7.71 16.09 6.85 18.72 1.53 21.34 6.85 27.21 7.71 22.96 11.85 23.97 17.69"/><path d="M12.83,24.83a6,6,0,1,1,6-6A6,6,0,0,1,12.83,24.83Zm0-10a4,4,0,1,0,4,4A4,4,0,0,0,12.83,14.83Z"/><path d="M4.34,28.83a1,1,0,0,1-.71-1.71l2.55-2.55A1,1,0,0,1,7.6,26L5,28.53A1,1,0,0,1,4.34,28.83Z"/></svg>
