<?xml version="1.0" encoding="utf-8"?>
<svg version="1.1" id="Layer_1" xmlns="http://www.w3.org/2000/svg" xmlns:xlink="http://www.w3.org/1999/xlink" x="0px" y="0px"
	 viewBox="19.5 264.5 27 33" enable-background="new 19.5 264.5 27 33" xml:space="preserve">
<path d="M33,264.5c-7.5,0-13.5,6-13.5,13.5c0,7.6,6.6,12.6,13.5,19.5
	c6.9-6.9,13.5-11.9,13.5-19.5C46.5,270.5,40.5,264.5,33,264.5z M34.6,287.4v-4.6h-3.2v4.6c-4.2-0.7-7.5-4-8.2-8.2h4.6V276h-4.6
	c0.7-4.2,4-7.5,8.2-8.2v4.6h3.2v-4.6c4.2,0.7,7.5,4,8.2,8.2h-4.6v3.2h4.6C42.1,283.4,38.8,286.7,34.6,287.4z"/>
</svg>
