<?xml version="1.0" encoding="utf-8"?>
<!-- Generator: Adobe Illustrator 19.2.0, SVG Export Plug-In . SVG Version: 6.00 Build 0)  -->
<svg version="1.1" id="Layer_1" xmlns="http://www.w3.org/2000/svg" xmlns:xlink="http://www.w3.org/1999/xlink" x="0px" y="0px"
	 width="22px" height="22px" viewBox="0 0 22 22" enable-background="new 0 0 22 22" xml:space="preserve">
<path d="M12,8H5v1h7V8z M12,10H5v1h7V10z M5,13h4v-1H5V13z M15.5,10c-0.5,0-1,0.1-1.5,0.3V4H3v14h11v-1.3c0.4,0.2,0.9,0.3,1.5,0.3
	c1.9,0,3.5-1.6,3.5-3.5S17.4,10,15.5,10z M13,17H4V5h9v6c-0.6,0.6-1,1.5-1,2.5s0.4,1.9,1,2.5V17z M15.5,16c-1.4,0-2.5-1.1-2.5-2.5
	s1.1-2.5,2.5-2.5s2.5,1.1,2.5,2.5S16.8,16,15.5,16z M16,12h-1v1h-1v1h1v1h1v-1h1v-1h-1V12z"/>
</svg>
