<svg xmlns="http://www.w3.org/2000/svg" viewBox="0 0 30 30"><path d="M4.14,16.28A8.5,8.5,0,0,1,6,7,8.55,8.55,0,0,1,8.68,5.14,9.08,9.08,0,0,1,12,4.47v2A6.11,6.11,0,0,0,9.46,7a6.49,6.49,0,0,0-4,6A6.45,6.45,0,0,0,6,15.5Z"/><path d="M17,25.47v-2A6,6,0,0,0,19.51,23,6.51,6.51,0,0,0,23,14.44l1.84-.78A8.53,8.53,0,0,1,20.29,24.8,8.93,8.93,0,0,1,17,25.47Z"/><polygon points="21.89 17.47 20.43 16.11 24.4 11.85 28.61 15.78 27.24 17.24 24.5 14.68 21.89 17.47"/><polygon points="5.46 18.29 0.63 15 1.75 13.35 4.94 15.51 6.92 12.6 8.57 13.73 5.46 18.29"/><path d="M16.17,12.59A3.93,3.93,0,0,0,15.29,12a2.13,2.13,0,0,0-1-.21,1.47,1.47,0,0,0-.93.26,1,1,0,0,0-.32.83,0.87,0.87,0,0,0,.33.69,4.25,4.25,0,0,0,.83.53l1.08,0.52a5.78,5.78,0,0,1,1.08.66,3.4,3.4,0,0,1,.83.94,2.61,2.61,0,0,1,.33,1.36,3.34,3.34,0,0,1-.61,2.09A2.82,2.82,0,0,1,15,20.8V23H13V20.87c0-.06-0.89-0.19-1.44-0.41a4.31,4.31,0,0,1-1.35-.87l1.12-1.68a5.83,5.83,0,0,0,1.25.74,3.09,3.09,0,0,0,1.2.25,1.58,1.58,0,0,0,1-.29,1.11,1.11,0,0,0,.33-0.88A1,1,0,0,0,14.82,17,4.39,4.39,0,0,0,14,16.38c-0.33-.19-0.69-0.37-1.08-0.56a6,6,0,0,1-1.08-.67A3.57,3.57,0,0,1,11,14.24a2.38,2.38,0,0,1-.33-1.29,3.07,3.07,0,0,1,.56-2.08A2.39,2.39,0,0,1,13,9.81V8h2V9.78c0,0.08,1,.24,1.38.49a5.19,5.19,0,0,1,1.08.9Z"/></svg>
