<?xml version="1.0" encoding="utf-8"?>
<!-- Generator: Adobe Illustrator 19.2.0, SVG Export Plug-In . SVG Version: 6.00 Build 0)  -->
<svg version="1.1" xmlns="http://www.w3.org/2000/svg" xmlns:xlink="http://www.w3.org/1999/xlink" x="0px" y="0px"
	 viewBox="0 0 22 22" enable-background="new 0 0 22 22" xml:space="preserve">
<path d="M17.5,8c-0.5,0-1,0.1-1.5,0.3V5H2v11h14v-1.3c0.4,0.2,0.9,0.3,1.5,0.3c1.9,0,3.5-1.6,3.5-3.5S19.4,8,17.5,8z M3,6h12v3
	c-0.6,0.6-1,1.5-1,2.5c0,0.5,0.1,1,0.4,1.5h-0.1l-2.3-2.8l-1.9,2L7,8.2l-4,4.5V6z M15,15H3v-1h0.2l3.7-4.2l3,4.1l2-2.1l1.9,2.2H15
	V15z M17.5,14c-1.4,0-2.5-1.1-2.5-2.5S16.1,9,17.5,9s2.5,1.1,2.5,2.5S18.8,14,17.5,14z M16,12h3v-1h-3V12z"/>
</svg>
