<?xml version="1.0" encoding="utf-8"?>
<!-- Generator: Adobe Illustrator 19.2.0, SVG Export Plug-In . SVG Version: 6.00 Build 0)  -->
<svg version="1.1" id="Layer_1" xmlns="http://www.w3.org/2000/svg" xmlns:xlink="http://www.w3.org/1999/xlink" x="0px" y="0px"
	 width="22px" height="22px" viewBox="0 0 22 22" enable-background="new 0 0 22 22" xml:space="preserve">
<path d="M5.7,13.6l0.5,0.9L8,13.4V17h6v-3.6l1.7,1l0.5-0.9L11,10.4L5.7,13.6z M13,12.8V16H9v-3.3l2-1.2L13,12.8z M18,8h-4v1h4
	c1.1,0,2,0.9,2,2v3c0,1.1-0.9,2-2,2h-1v1h1c1.7,0,3-1.3,3-3v-3C21,9.3,19.7,8,18,8z M6.4,11.3l2.3-2.8L6.4,5.7L5.6,6.3L7,8H4
	c-1.7,0-3,1.3-3,3v3c0,1.7,1.3,3,3,3h1v-1H4c-1.1,0-2-0.9-2-2v-3c0-1.1,0.9-2,2-2h3l-1.4,1.6L6.4,11.3z"/>
</svg>
