<svg xmlns="http://www.w3.org/2000/svg" xmlns:xlink="http://www.w3.org/1999/xlink" width="14" height="14" viewBox="0 0 14 14">
  <path d="M10.922,14.004 C10.755,14.004 10.591,13.993 10.435,13.971 C10.279,13.950 10.097,13.910 9.892,13.853 C9.679,13.793 9.521,13.745 9.418,13.708 C9.310,13.670 9.114,13.597 8.832,13.492 C8.535,13.380 8.353,13.314 8.286,13.292 C7.637,13.059 7.041,12.777 6.527,12.457 C5.650,11.916 4.729,11.164 3.787,10.222 C2.845,9.281 2.094,8.359 1.554,7.485 C1.232,6.968 0.950,6.372 0.714,5.711 C0.695,5.657 0.629,5.475 0.518,5.178 C0.412,4.896 0.340,4.700 0.301,4.591 C0.264,4.488 0.217,4.330 0.156,4.117 C0.099,3.914 0.060,3.732 0.038,3.575 C0.017,3.417 0.006,3.253 0.006,3.087 C0.006,2.525 0.167,1.943 0.486,1.356 C0.941,0.534 1.242,0.340 1.349,0.294 C1.505,0.226 1.718,0.161 1.994,0.098 C2.315,0.024 2.506,0.006 2.612,0.005 C2.665,0.076 2.764,0.230 2.922,0.545 C3.015,0.708 3.120,0.897 3.253,1.142 C3.390,1.395 3.516,1.624 3.632,1.830 C3.749,2.038 3.863,2.235 3.973,2.418 L3.988,2.443 L4.004,2.465 C4.025,2.492 4.083,2.576 4.181,2.717 C4.289,2.874 4.342,2.969 4.367,3.022 C4.373,3.035 4.378,3.047 4.381,3.057 C4.363,3.088 4.322,3.148 4.235,3.240 C4.053,3.431 3.853,3.609 3.640,3.768 C3.380,3.962 3.137,4.170 2.917,4.385 C2.714,4.585 2.445,4.894 2.445,5.276 C2.445,5.409 2.474,5.551 2.533,5.711 C2.578,5.832 2.617,5.924 2.648,5.986 C2.677,6.045 2.735,6.146 2.823,6.288 C2.883,6.385 2.920,6.446 2.932,6.468 C3.499,7.490 4.159,8.380 4.894,9.115 C5.628,9.850 6.519,10.510 7.540,11.076 C7.567,11.091 7.626,11.127 7.721,11.186 C7.863,11.274 7.964,11.332 8.022,11.361 C8.085,11.393 8.177,11.432 8.299,11.476 C8.458,11.536 8.600,11.565 8.733,11.565 C9.116,11.565 9.425,11.295 9.624,11.092 C9.842,10.870 10.050,10.627 10.242,10.369 C10.401,10.156 10.579,9.956 10.769,9.775 C10.861,9.688 10.921,9.646 10.953,9.628 C10.962,9.630 10.973,9.635 10.987,9.642 C11.039,9.667 11.135,9.720 11.293,9.829 C11.434,9.926 11.517,9.984 11.544,10.004 L11.567,10.022 L11.591,10.036 C11.775,10.147 11.971,10.260 12.180,10.377 C12.385,10.492 12.615,10.619 12.867,10.757 C13.113,10.889 13.301,10.994 13.434,11.071 C13.772,11.241 13.932,11.344 14.004,11.397 C14.003,11.504 13.985,11.694 13.911,12.016 C13.848,12.291 13.783,12.505 13.719,12.651 C13.670,12.767 13.475,13.068 12.649,13.526 C12.066,13.842 11.484,14.004 10.922,14.004 Z" class="cls-1"/>
</svg>
