<?xml version="1.0" encoding="utf-8"?>
<svg version="1.1" xmlns="http://www.w3.org/2000/svg" xmlns:xlink="http://www.w3.org/1999/xlink" x="0px" y="0px"
	 viewBox="-632.5 373.5 55 55" style="enable-background:new -632.5 373.5 55 55;" xml:space="preserve">
<path d="M-598,397v6h-8v5h-8v5h-8v10h34v-26H-598z M-614,421h-6v-6h6V421z M-606,421h-6v-11h6V421z M-598,421h-6v-16h6
	V421z M-590,421h-6v-22h6V421z M-609.9,391.3l4.9,5.1l14-14v2.6h2l-0.1-6h-5.8v2h2.4l-12.5,12.5l-4.9-5.1l-10.8,10.9l1.4,1.4
	L-609.9,391.3z"/>
</svg>
