<?xml version="1.0" encoding="utf-8"?>
<!-- Generator: Adobe Illustrator 18.1.0, SVG Export Plug-In . SVG Version: 6.00 Build 0)  -->
<svg width="34" height="47" version="1.1" xmlns="http://www.w3.org/2000/svg" xmlns:xlink="http://www.w3.org/1999/xlink" x="0px" y="0px"
	 viewBox="0 0 34 47" enable-background="new 0 0 34 47" xml:space="preserve">
<path fill="#00BBAA" d="M17,0C7.6,0,0,7.6,0,17c0,9.4,12.1,25.1,17,30c4.5-4.5,17-20.6,17-30C34,7.6,26.4,0,17,0z M17,23
	c-3,0-5.5-2.5-5.5-5.5S14,12,17,12s5.5,2.5,5.5,5.5S20,23,17,23z"/>
<linearGradient id="SVGID_1_" gradientUnits="userSpaceOnUse" x1="8.4999" y1="3.819878e-010" x2="8.4999" y2="46.9996">
	<stop  offset="0" style="stop-color:#00D9C8"/>
	<stop  offset="1" style="stop-color:#00937D"/>
</linearGradient>
<path fill="url(#SVGID_1_)" d="M11.5,17.5c0-3,2.5-5.5,5.5-5.5V0C7.6,0,0,7.6,0,17c0,9.4,12.1,25.1,17,30V23
	C14,23,11.5,20.5,11.5,17.5z"/>
<linearGradient id="SVGID_2_" gradientUnits="userSpaceOnUse" x1="16.9999" y1="28.0004" x2="16.9999" y2="7.0001">
	<stop  offset="0" style="stop-color:#00D9C8"/>
	<stop  offset="1" style="stop-color:#00937D"/>
</linearGradient>
<path fill="url(#SVGID_2_)" d="M17,7C11.2,7,6.5,11.7,6.5,17.5C6.5,23.3,11.2,28,17,28c5.8,0,10.5-4.7,10.5-10.5
	C27.5,11.7,22.8,7,17,7z M17,23c-3,0-5.5-2.5-5.5-5.5S14,12,17,12s5.5,2.5,5.5,5.5S20,23,17,23z"/>
</svg>
