<?xml version="1.0" encoding="utf-8"?>
<!-- Generator: Adobe Illustrator 19.2.0, SVG Export Plug-In . SVG Version: 6.00 Build 0)  -->
<svg version="1.1" xmlns="http://www.w3.org/2000/svg" xmlns:xlink="http://www.w3.org/1999/xlink" x="0px" y="0px"
	 viewBox="0 0 30 30" style="enable-background:new 0 0 30 30;" xml:space="preserve">
<path d="M15.8,7.8c-5.5,0-10,4.4-10,9.9c0,1.2,0.2,2.3,0.6,3.4l0.2,0.6l9.4,0.1l8.9-0.1l0.2-0.6c0.4-1.1,0.6-2.2,0.6-3.4
	C25.8,12.3,21.3,7.8,15.8,7.8z M23.6,19.8l-7.5,0l-7.9-0.1c-0.2-0.7-0.3-1.4-0.3-2.1c0-4.3,3.6-7.9,8-7.9c4.4,0,8,3.5,8,7.9
	C23.8,18.4,23.7,19.1,23.6,19.8z M16.5,10.7h-1v1.7h1V10.7z M10.1,13.3l1.2,1.2l0.7-0.7l-1.2-1.2L10.1,13.3z M20.1,12.7l-0.3-0.3
	l-3.2,3.2c-0.2-0.1-0.4-0.1-0.6-0.1c-0.8,0-1.5,0.7-1.5,1.5s0.7,1.5,1.5,1.5s1.5-0.7,1.5-1.5c0-0.2-0.1-0.5-0.2-0.7l2.2-2.2l0.3,0.3
	l1.2-1.2l-0.7-0.7L20.1,12.7z M9.2,18h1.7v-1H9.2V18z M21.2,18h1.7v-1h-1.7V18z"/>
</svg>
