<svg xmlns="http://www.w3.org/2000/svg" viewBox="0 0 30 30"><path d="M6.94,23.25l0-.88a12.22,12.22,0,0,1,.13-1.43A4.24,4.24,0,0,1,8,18.57a5,5,0,0,1,2.25-1,11.12,11.12,0,0,0,1.12-.34,1.61,1.61,0,0,0,.5-0.28l0,0,0-.06a1.55,1.55,0,0,0-.49-1.28,7.65,7.65,0,0,1-.68-1.19,6.12,6.12,0,0,1-.26-4.29A3.82,3.82,0,0,1,12.22,8,5.3,5.3,0,0,1,15,7.25,5.3,5.3,0,0,1,17.78,8a3.82,3.82,0,0,1,1.66,2.13,6.12,6.12,0,0,1-.26,4.29,7.66,7.66,0,0,1-.68,1.19A1.55,1.55,0,0,0,18,16.86l0,0.06,0,0a1.61,1.61,0,0,0,.5.28,11.11,11.11,0,0,0,1.12.34,5,5,0,0,1,2.25,1,4.24,4.24,0,0,1,.94,2.37A12.22,12.22,0,0,1,23,22.37l0,0.88H6.94Zm2.28-3.43a3.27,3.27,0,0,0-.43,1.41l0,0.3H21.25l0-.33a2.89,2.89,0,0,0-.45-1.42h0a4.35,4.35,0,0,0-1.47-.54c-1.12-.3-2.39-0.64-2.82-1.68a3,3,0,0,1,.62-2.93,6.14,6.14,0,0,0,.53-0.92,4.37,4.37,0,0,0,.2-3.1A2.71,2.71,0,0,0,15,9a2.71,2.71,0,0,0-2.81,1.64,4.37,4.37,0,0,0,.2,3.1,6.14,6.14,0,0,0,.53.92,3,3,0,0,1,.62,2.93c-0.44,1-1.7,1.38-2.82,1.68a4.33,4.33,0,0,0-1.47.54l0,0v0Z"/></svg>
