<?xml version="1.0" encoding="utf-8"?>
<!-- Generator: Adobe Illustrator 19.2.0, SVG Export Plug-In . SVG Version: 6.00 Build 0)  -->
<svg version="1.1"  xmlns="http://www.w3.org/2000/svg" xmlns:xlink="http://www.w3.org/1999/xlink" x="0px" y="0px"
	  viewBox="0 0 22 22" enable-background="new 0 0 22 22" xml:space="preserve">
<path d="M9,9.1L7.1,5.3L5.3,9.1L1.1,9.7l3,3l-0.7,4.2l3.8-2l3.8,2l-0.7-4.2l3-3L9,9.1z M9.6,15l-2.4-1.3L4.7,15l0.5-2.7l-2-1.9
	L5.9,10l1.2-2.5L8.3,10l2.7,0.4l-2,1.9L9.6,15z M17.5,5.3l-2.9,2.2l0.6,0.8L17,7v6h1V7l1.7,1.3l0.6-0.8L17.5,5.3z"/>
</svg>
