<?xml version="1.0" encoding="utf-8"?>
<svg version="1.1" xmlns="http://www.w3.org/2000/svg" xmlns:xlink="http://www.w3.org/1999/xlink" x="0px" y="0px"
 viewBox="0 0 22 22" enable-background="new 0 0 22 22" xml:space="preserve">
<path d="M17.7,6.2l-5,5l-1,3.1l3.1-1l5-5L17.7,6.2z M14.3,12.5l-1,0.3l0.3-1l4.2-4.2l0.7,0.7L14.3,12.5z M13.2,8.7L9,8.1L7.1,4.3
	L5.3,8.1L1.1,8.7l3,3l-0.7,4.2l3.8-2l3.8,2l-0.7-4.2L13.2,8.7z M7.1,12.7L4.7,14l0.5-2.7l-2-1.9L5.9,9l1.2-2.5L8.3,9l2.7,0.4l-2,1.9
	L9.6,14L7.1,12.7z"/>
</svg>
