<?xml version="1.0" encoding="utf-8"?>
<!-- Generator: Adobe Illustrator 18.1.1, SVG Export Plug-In . SVG Version: 6.00 Build 0)  -->
<svg version="1.1" id="Layer_1" xmlns="http://www.w3.org/2000/svg" xmlns:xlink="http://www.w3.org/1999/xlink" x="0px" y="0px"
	 viewBox="0 0 17 31" enable-background="new 0 0 17 31" xml:space="preserve">
<linearGradient id="SVGID_1_" gradientUnits="userSpaceOnUse" x1="8.5" y1="31" x2="8.5" y2="8">
	<stop  offset="0" style="stop-color:#E4E4E4;stop-opacity:0"/>
	<stop  offset="1" style="stop-color:#E4E4E4"/>
</linearGradient>
<rect y="8" fill="url(#SVGID_1_)" width="17" height="23"/>
<g>
	<linearGradient id="SVGID_2_" gradientUnits="userSpaceOnUse" x1="8.5" y1="0.5" x2="8.5" y2="16.5">
		<stop  offset="0" style="stop-color:#FFFFFF"/>
		<stop  offset="1" style="stop-color:#ECECEC"/>
	</linearGradient>
	<path fill="url(#SVGID_2_)" d="M8.5,16.5c-4.4,0-8-3.6-8-8s3.6-8,8-8s8,3.6,8,8S12.9,16.5,8.5,16.5z"/>
	<path fill="#CACACA" d="M8.5,1C12.6,1,16,4.4,16,8.5S12.6,16,8.5,16S1,12.6,1,8.5S4.4,1,8.5,1 M8.5,0C3.8,0,0,3.8,0,8.5
		S3.8,17,8.5,17S17,13.2,17,8.5S13.2,0,8.5,0L8.5,0z"/>
</g>
<rect x="6" y="6" fill="#CBCBCB" width="1" height="5"/>
<rect x="8" y="6" fill="#CBCBCB" width="1" height="5"/>
<rect x="10" y="6" fill="#CBCBCB" width="1" height="5"/>
</svg>
